<svg width="22" height="22" viewBox="0 0 22 22" fill="none" xmlns="http://www.w3.org/2000/svg">
<path d="M19.0278 16.9563C19.2989 17.1461 19.3661 17.5209 19.1614 17.7809C17.8892 19.3977 16.1759 20.6182 14.2227 21.2907C12.0803 22.0284 9.75936 22.0689 7.59251 21.4064C5.42567 20.7439 3.52417 19.4125 2.16055 17.6029C0.796921 15.7933 0.0411795 13.5985 0.00163498 11.333C-0.0379096 9.06747 0.640773 6.8476 1.94041 4.99152C3.24005 3.13544 5.09393 1.73845 7.23633 1.00076C9.37874 0.263069 11.6997 0.222557 13.8665 0.885028C15.842 1.48898 17.5969 2.64893 18.9247 4.2203C19.1383 4.47306 19.0843 4.84998 18.82 5.04912L16.3809 6.88711C16.1166 7.08626 15.7429 7.03126 15.5202 6.78651C14.7394 5.92845 13.7397 5.29295 12.6232 4.95163C11.3152 4.55172 9.91409 4.57617 8.62078 5.02149C7.32747 5.46682 6.20834 6.31014 5.42378 7.4306C4.63923 8.55107 4.22953 9.89114 4.2534 11.2588C4.27727 12.6264 4.73349 13.9513 5.55667 15.0437C6.37985 16.1361 7.52774 16.9399 8.8358 17.3398C10.1439 17.7397 11.545 17.7153 12.8383 17.2699C13.9421 16.8899 14.919 16.2199 15.6694 15.3351C15.8834 15.0827 16.255 15.0147 16.5261 15.2045L19.0278 16.9563Z" fill="#1A44ED"/>
<path d="M20.1261 14.4588C20.3971 14.6486 20.7735 14.5839 20.937 14.2962C21.4997 13.3063 21.7889 12.1802 21.7689 11.0344C21.7489 9.88858 21.4206 8.77321 20.8237 7.80352C20.6502 7.52172 20.2718 7.4702 20.0076 7.66935L16.053 10.6493C15.7279 10.8943 15.7365 11.3852 16.0699 11.6187L20.1261 14.4588Z" fill="#1A44ED"/>
</svg>
