<svg width="22" height="23" viewBox="0 0 22 23" fill="none" xmlns="http://www.w3.org/2000/svg">
<path d="M19.229 17.3733C19.5029 17.5679 19.5708 17.9521 19.364 18.2187C18.0783 19.8762 16.3469 21.1275 14.3731 21.817C12.208 22.5732 9.86254 22.6148 7.67278 21.9356C5.48303 21.2564 3.56143 19.8914 2.18339 18.0362C0.805347 16.181 0.0416149 13.9309 0.00165227 11.6082C-0.0383104 9.28562 0.647548 7.00979 1.96093 5.10692C3.27431 3.20405 5.14778 1.77184 7.31283 1.01556C9.47789 0.25927 11.8234 0.217736 14.0131 0.896908C16.0094 1.51608 17.7829 2.70528 19.1248 4.31626C19.3406 4.57539 19.286 4.96181 19.0189 5.16598L16.5541 7.05029C16.287 7.25446 15.9093 7.19808 15.6842 6.94715C14.8952 6.06747 13.8849 5.41595 12.7567 5.06602C11.4348 4.65603 10.0189 4.6811 8.71192 5.13765C7.40494 5.5942 6.27398 6.45878 5.48113 7.60749C4.68828 8.7562 4.27424 10.1301 4.29837 11.5322C4.32249 12.9342 4.78353 14.2926 5.61542 15.4125C6.4473 16.5325 7.60732 17.3565 8.92921 17.7665C10.2511 18.1765 11.667 18.1514 12.974 17.6949C14.0895 17.3052 15.0768 16.6183 15.835 15.7112C16.0513 15.4525 16.4269 15.3828 16.7008 15.5774L19.229 17.3733Z" fill="white"/>
<path d="M20.3388 14.8129C20.6128 15.0075 20.9931 14.9411 21.1584 14.6462C21.727 13.6313 22.0193 12.4768 21.9991 11.3021C21.9788 10.1274 21.6471 8.98393 21.0438 7.9898C20.8685 7.7009 20.4862 7.64808 20.2191 7.85225L16.2227 10.9073C15.8942 11.1585 15.9028 11.6617 16.2398 11.9011L20.3388 14.8129Z" fill="white"/>
</svg>
