<svg width="18" height="19" viewBox="0 0 18 19" fill="none" xmlns="http://www.w3.org/2000/svg">
<path d="M12.3512 13.6451C11.5956 14.3723 10.6459 14.856 9.62115 15.0357C8.59644 15.2153 7.54242 15.0829 6.59141 14.6549C5.6404 14.227 4.83478 13.5226 4.27569 12.6302C3.7166 11.7378 3.42895 10.6972 3.44886 9.63904C3.46877 8.58084 3.79534 7.55221 4.38759 6.68228C4.97983 5.81235 5.81135 5.13988 6.77776 4.74929C7.74417 4.3587 8.8024 4.26741 9.81961 4.48686C10.8368 4.70632 11.7677 5.22675 12.4953 5.98281L14.8257 3.38795C13.5951 2.16372 12.0364 1.33715 10.3455 1.01216C8.65464 0.687166 6.90712 0.878271 5.32266 1.56144C3.73821 2.2446 2.38755 3.38933 1.44051 4.8517C0.493469 6.31406 -0.00767385 8.02879 8.88351e-05 9.78027C0.00785152 11.5317 0.524174 13.2418 1.48414 14.6954C2.4441 16.149 3.80485 17.2813 5.3953 17.9499C6.98574 18.6185 8.73489 18.7935 10.4228 18.453C12.1107 18.1125 13.6621 17.2717 14.8818 16.0362L12.3512 13.6451Z" fill="white"/>
<path opacity="0.8" d="M15.405 15.4629L12.8423 13.1098C12.9048 13.0416 12.9637 12.9699 13.0185 12.8952C13.1079 12.7749 13.1865 12.6466 13.2534 12.5121L16.2752 14.2103C16.1551 14.4195 16.0083 14.6396 15.8561 14.8705C15.704 15.1015 15.5491 15.2862 15.405 15.4629Z" fill="white"/>
<path opacity="0.6" d="M16.6516 13.4658L13.5684 11.8844C13.6031 11.8002 13.6378 11.7105 13.6699 11.6127C13.7179 11.4823 13.7579 11.36 13.7953 11.2404L17.1668 12.0067C17.0476 12.508 16.8749 12.9946 16.6516 13.4576V13.4658Z" fill="white"/>
<path opacity="0.4" d="M17.4551 9.67266L14.0062 9.83841C14.0062 9.94438 14.0062 10.0558 13.9875 10.1726C13.9688 10.2894 13.9661 10.3981 13.9528 10.5014L17.335 11.2133C17.3777 10.9416 17.4124 10.6698 17.4337 10.3519C17.4497 10.1128 17.4551 9.8846 17.4551 9.67266Z" fill="white"/>
<path opacity="0.2" d="M17.1428 7.37398C17.2042 7.60221 17.2629 7.85491 17.3136 8.12934C17.3643 8.40377 17.399 8.69993 17.4204 8.94448L13.9688 9.0749C13.9555 8.97708 13.9421 8.87655 13.9235 8.77058C13.9048 8.66462 13.8754 8.5206 13.846 8.4092L17.1428 7.37398Z" fill="white"/>
</svg>
