<svg width="22" height="22" viewBox="0 0 22 22" fill="none" xmlns="http://www.w3.org/2000/svg">
<path d="M19.0278 16.9563C19.2989 17.1461 19.3661 17.5209 19.1614 17.781C17.8892 19.3977 16.1759 20.6182 14.2227 21.2907C12.0803 22.0284 9.75936 22.0689 7.59251 21.4065C5.42567 20.744 3.52417 19.4126 2.16055 17.603C0.796921 15.7934 0.0411795 13.5985 0.00163498 11.333C-0.0379096 9.06753 0.640773 6.84766 1.94041 4.99158C3.24005 3.1355 5.09393 1.73851 7.23633 1.00082C9.37874 0.26313 11.6997 0.222618 13.8665 0.885089C15.842 1.48904 17.5969 2.649 18.9247 4.22036C19.1383 4.47312 19.0843 4.85004 18.82 5.04919L16.3809 6.88717C16.1166 7.08632 15.7429 7.03132 15.5202 6.78657C14.7394 5.92851 13.7397 5.29302 12.6232 4.95169C11.3152 4.55178 9.91409 4.57623 8.62078 5.02156C7.32747 5.46688 6.20834 6.3102 5.42378 7.43066C4.63923 8.55113 4.22953 9.8912 4.2534 11.2588C4.27727 12.6264 4.73349 13.9514 5.55667 15.0438C6.37985 16.1362 7.52774 16.94 8.8358 17.3399C10.1439 17.7398 11.545 17.7153 12.8383 17.27C13.9421 16.8899 14.919 16.2199 15.6694 15.3352C15.8834 15.0828 16.255 15.0148 16.5261 15.2046L19.0278 16.9563Z" fill="white"/>
<path d="M20.1261 14.4589C20.3971 14.6487 20.7735 14.584 20.937 14.2963C21.4997 13.3064 21.7889 12.1802 21.7689 11.0344C21.7489 9.88864 21.4206 8.77327 20.8237 7.80358C20.6502 7.52178 20.2718 7.47026 20.0076 7.66941L16.053 10.6494C15.7279 10.8944 15.7365 11.3852 16.0699 11.6187L20.1261 14.4589Z" fill="white"/>
</svg>
