<svg width="22" height="23" viewBox="0 0 22 23" fill="none" xmlns="http://www.w3.org/2000/svg">
<path d="M15.4088 16.1076C14.4662 17.0036 13.2814 17.5998 12.003 17.8211C10.7246 18.0425 9.40963 17.8793 8.22318 17.3519C7.03674 16.8246 6.03168 15.9566 5.33419 14.857C4.63669 13.7574 4.27783 12.4752 4.30267 11.1712C4.3275 9.86727 4.73492 8.59976 5.47378 7.5278C6.21264 6.45584 7.25001 5.6272 8.45567 5.14591C9.66132 4.66462 10.9815 4.55212 12.2506 4.82254C13.5196 5.09296 14.6809 5.73425 15.5887 6.66589L18.496 3.46842C16.9607 1.95989 15.0161 0.94136 12.9067 0.540897C10.7972 0.140433 8.61705 0.375919 6.64035 1.21774C4.66364 2.05955 2.97861 3.47012 1.79712 5.2721C0.615633 7.07407 -0.0095736 9.18701 0.000110827 11.3452C0.00979526 13.5035 0.653939 15.6107 1.85155 17.4018C3.04916 19.193 4.74678 20.5882 6.73096 21.4121C8.71514 22.236 10.8973 22.4517 13.0031 22.0321C15.1089 21.6125 17.0443 20.5764 18.5659 19.054L15.4088 16.1076Z" fill="#0076FF"/>
<path opacity="0.8" d="M19.2187 18.3475L16.0216 15.448C16.0996 15.3639 16.173 15.2756 16.2414 15.1835C16.3529 15.0353 16.451 14.8773 16.5345 14.7114L20.3043 16.804C20.1545 17.0618 19.9713 17.333 19.7815 17.6176C19.5917 17.9022 19.3985 18.1299 19.2187 18.3475Z" fill="#0076FF"/>
<path opacity="0.6" d="M20.7739 15.8866L16.9274 13.938C16.9707 13.8342 17.014 13.7237 17.054 13.6032C17.1139 13.4425 17.1639 13.2918 17.2105 13.1445L21.4166 14.0887C21.2679 14.7065 21.0524 15.306 20.7739 15.8766V15.8866Z" fill="#0076FF"/>
<path opacity="0.4" d="M21.7763 11.2126L17.4736 11.4169C17.4736 11.5475 17.4736 11.6847 17.4503 11.8287C17.427 11.9727 17.4236 12.1066 17.407 12.2338L21.6264 13.111C21.6797 12.7762 21.723 12.4414 21.7496 12.0497C21.7696 11.755 21.7763 11.4738 21.7763 11.2126Z" fill="#0076FF"/>
<path opacity="0.2" d="M21.3867 8.38013C21.4633 8.66137 21.5365 8.97275 21.5998 9.31091C21.6631 9.64907 21.7064 10.014 21.733 10.3153L17.427 10.4761C17.4103 10.3555 17.3937 10.2316 17.3704 10.1011C17.3471 9.97049 17.3104 9.79304 17.2738 9.65576L21.3867 8.38013Z" fill="#0076FF"/>
</svg>
