<svg width="201" height="34" viewBox="0 0 201 34" fill="none" xmlns="http://www.w3.org/2000/svg">
<path d="M19.0278 21.9563C19.2989 22.1461 19.3661 22.5209 19.1614 22.7809C17.8892 24.3977 16.1759 25.6182 14.2227 26.2907C12.0803 27.0284 9.75936 27.0689 7.59251 26.4064C5.42567 25.7439 3.52417 24.4125 2.16055 22.6029C0.796921 20.7933 0.0411795 18.5985 0.00163498 16.333C-0.0379096 14.0675 0.640773 11.8476 1.94041 9.99152C3.24005 8.13544 5.09393 6.73845 7.23633 6.00076C9.37874 5.26307 11.6997 5.22256 13.8665 5.88503C15.842 6.48898 17.5969 7.64893 18.9247 9.2203C19.1383 9.47306 19.0843 9.84998 18.82 10.0491L16.3809 11.8871C16.1166 12.0863 15.7429 12.0313 15.5202 11.7865C14.7394 10.9285 13.7397 10.293 12.6232 9.95163C11.3152 9.55172 9.91409 9.57617 8.62078 10.0215C7.32747 10.4668 6.20834 11.3101 5.42378 12.4306C4.63923 13.5511 4.22953 14.8911 4.2534 16.2588C4.27727 17.6264 4.73349 18.9513 5.55667 20.0437C6.37985 21.1361 7.52774 21.9399 8.8358 22.3398C10.1439 22.7397 11.545 22.7153 12.8383 22.2699C13.9421 21.8899 14.919 21.2199 15.6694 20.3351C15.8834 20.0827 16.255 20.0147 16.5261 20.2045L19.0278 21.9563Z" fill="#1A44ED"/>
<path d="M20.1261 19.4588C20.3971 19.6486 20.7735 19.5839 20.937 19.2962C21.4997 18.3063 21.7889 17.1802 21.7689 16.0344C21.7489 14.8886 21.4206 13.7732 20.8237 12.8035C20.6502 12.5217 20.2718 12.4702 20.0076 12.6694L16.053 15.6493C15.7279 15.8943 15.7365 16.3852 16.0699 16.6187L20.1261 19.4588Z" fill="#1A44ED"/>
<path d="M28.9064 14.9278V26.2993H24.3287V0.422852H28.8052V10.1897H29.0328C29.488 9.09465 30.192 8.23127 31.1446 7.59952C32.1056 6.95935 33.328 6.63926 34.8118 6.63926C36.1606 6.63926 37.3366 6.92144 38.3398 7.4858C39.343 8.05016 40.1186 8.87565 40.6666 9.96226C41.223 11.0489 41.5012 12.3755 41.5012 13.9423V26.2993H36.9235V14.6498C36.9235 13.3442 36.5863 12.3292 35.9119 11.6048C35.2459 10.872 34.3102 10.5056 33.1046 10.5056C32.2953 10.5056 31.5703 10.6825 30.9296 11.0362C30.2974 11.3816 29.8 11.8828 29.4375 12.5398C29.0834 13.1968 28.9064 13.9928 28.9064 14.9278Z" fill="black"/>
<path d="M53.3418 26.6783C51.3944 26.6783 49.7126 26.274 48.2963 25.4654C46.8885 24.6483 45.8052 23.4943 45.0465 22.0034C44.2877 20.504 43.9084 18.7394 43.9084 16.7093C43.9084 14.713 44.2877 12.961 45.0465 11.4532C45.8136 9.93699 46.8843 8.75772 48.2584 7.91539C49.6325 7.06464 51.2469 6.63926 53.1016 6.63926C54.2987 6.63926 55.4283 6.83299 56.4905 7.22047C57.5612 7.59952 58.5054 8.18915 59.3231 8.98936C60.1493 9.78958 60.7984 10.8088 61.2705 12.047C61.7426 13.2768 61.9787 14.7425 61.9787 16.444V17.8465H46.0581V14.7635H57.5907C57.5823 13.8875 57.3926 13.1084 57.0217 12.4261C56.6507 11.7354 56.1323 11.1921 55.4663 10.7962C54.8087 10.4003 54.0416 10.2023 53.1648 10.2023C52.229 10.2023 51.4071 10.4298 50.699 10.8846C49.9908 11.331 49.4386 11.9207 49.0424 12.6535C48.6546 13.3779 48.4565 14.1739 48.4481 15.0415V17.7328C48.4481 18.8615 48.6546 19.8302 49.0677 20.6388C49.4808 21.439 50.0583 22.0539 50.8001 22.4835C51.542 22.9047 52.4103 23.1153 53.4051 23.1153C54.0711 23.1153 54.6738 23.0226 55.2134 22.8373C55.7529 22.6436 56.2208 22.3614 56.617 21.9908C57.0132 21.6201 57.3125 21.1611 57.5148 20.6135L61.789 21.0937C61.5192 22.2224 61.005 23.2079 60.2462 24.0503C59.4959 24.8842 58.5349 25.5328 57.3631 25.996C56.1913 26.4509 54.8509 26.6783 53.3418 26.6783Z" fill="black"/>
<path d="M77.3885 33.577V23.2416H77.1988C76.9628 23.7133 76.6213 24.2145 76.1745 24.7452C75.7277 25.2674 75.1376 25.7139 74.4042 26.0845C73.6707 26.4551 72.7476 26.6404 71.6348 26.6404C70.1089 26.6404 68.7432 26.2487 67.5377 25.4654C66.3322 24.682 65.3796 23.5449 64.6798 22.0539C63.9801 20.563 63.6303 18.752 63.6303 16.6209C63.6303 14.4645 63.9843 12.6451 64.6925 11.1626C65.4091 9.67165 66.3743 8.54714 67.5883 7.78904C68.8022 7.02252 70.1553 6.63926 71.6475 6.63926C72.7856 6.63926 73.7213 6.83299 74.4547 7.22047C75.1882 7.59952 75.7699 8.05859 76.1998 8.59768C76.6298 9.12835 76.9628 9.62954 77.1988 10.1012H77.477V6.89196H81.9788V33.577H77.3885ZM72.912 22.8878C73.8815 22.8878 74.7077 22.6267 75.3905 22.1045C76.0734 21.5738 76.5918 20.8368 76.9459 19.8933C77.3 18.9499 77.477 17.8507 77.477 16.5956C77.477 15.3405 77.3 14.2497 76.9459 13.3232C76.6003 12.3966 76.086 11.6764 75.4032 11.1626C74.7287 10.6488 73.8983 10.3918 72.912 10.3918C71.8919 10.3918 71.0405 10.6572 70.3576 11.1878C69.6748 11.7185 69.1605 12.4513 68.8149 13.3863C68.4693 14.3213 68.2964 15.3911 68.2964 16.5956C68.2964 17.8086 68.4693 18.891 68.8149 19.8428C69.169 20.7862 69.6874 21.5317 70.3703 22.0792C71.0616 22.6183 71.9088 22.8878 72.912 22.8878Z" fill="black"/>
<path d="M97.6383 18.1371V6.89196H102.216V26.2993H97.7774V22.8499H97.5751C97.1367 23.9365 96.4159 24.8252 95.4127 25.5159C94.418 26.2066 93.1914 26.552 91.7329 26.552C90.46 26.552 89.3345 26.2698 88.3566 25.7054C87.3871 25.1326 86.6284 24.303 86.0804 23.2163C85.5325 22.1213 85.2585 20.7989 85.2585 19.249V6.89196H89.8361V18.5414C89.8361 19.7712 90.1733 20.7483 90.8477 21.4727C91.5222 22.1971 92.4073 22.5593 93.5033 22.5593C94.1777 22.5593 94.8311 22.3951 95.4633 22.0666C96.0956 21.7381 96.6141 21.2495 97.0187 20.6009C97.4318 19.9439 97.6383 19.1226 97.6383 18.1371Z" fill="black"/>
<path d="M114.098 26.6783C112.15 26.6783 110.468 26.274 109.052 25.4654C107.644 24.6483 106.561 23.4943 105.802 22.0034C105.044 20.504 104.664 18.7394 104.664 16.7093C104.664 14.713 105.044 12.961 105.802 11.4532C106.569 9.93699 107.64 8.75772 109.014 7.91539C110.388 7.06464 112.003 6.63926 113.857 6.63926C115.055 6.63926 116.184 6.83299 117.246 7.22047C118.317 7.59952 119.261 8.18915 120.079 8.98936C120.905 9.78958 121.554 10.8088 122.026 12.047C122.498 13.2768 122.735 14.7425 122.735 16.444V17.8465H106.814V14.7635H118.347C118.338 13.8875 118.148 13.1084 117.778 12.4261C117.407 11.7354 116.888 11.1921 116.222 10.7962C115.565 10.4003 114.797 10.2023 113.921 10.2023C112.985 10.2023 112.163 10.4298 111.455 10.8846C110.747 11.331 110.195 11.9207 109.798 12.6535C109.41 13.3779 109.212 14.1739 109.204 15.0415V17.7328C109.204 18.8615 109.41 19.8302 109.824 20.6388C110.237 21.439 110.814 22.0539 111.556 22.4835C112.298 22.9047 113.166 23.1153 114.161 23.1153C114.827 23.1153 115.43 23.0226 115.969 22.8373C116.509 22.6436 116.977 22.3614 117.373 21.9908C117.769 21.6201 118.068 21.1611 118.271 20.6135L122.545 21.0937C122.275 22.2224 121.761 23.2079 121.002 24.0503C120.252 24.8842 119.291 25.5328 118.119 25.996C116.947 26.4509 115.607 26.6783 114.098 26.6783Z" fill="black"/>
<path d="M125.293 26.4466V0.422852H129.878V10.1563H130.068C130.304 9.68195 130.638 9.17791 131.068 8.64422C131.499 8.10206 132.081 7.64038 132.816 7.25917C133.55 6.86949 134.487 6.67465 135.627 6.67465C137.13 6.67465 138.485 7.0601 139.692 7.83098C140.908 8.5934 141.87 9.72431 142.579 11.2237C143.297 12.7147 143.656 14.5445 143.656 16.7131C143.656 18.8563 143.306 20.6777 142.605 22.1771C141.904 23.6765 140.95 24.8201 139.743 25.608C138.535 26.3958 137.168 26.7897 135.64 26.7897C134.525 26.7897 133.601 26.6033 132.866 26.2306C132.132 25.8579 131.541 25.4089 131.093 24.8837C130.654 24.35 130.312 23.8459 130.068 23.3715H129.802V26.4466H125.293ZM129.789 16.6877C129.789 17.9499 129.966 19.0554 130.321 20.0042C130.684 20.953 131.203 21.6942 131.879 22.2279C132.562 22.7531 133.39 23.0157 134.361 23.0157C135.374 23.0157 136.222 22.7447 136.906 22.2025C137.59 21.6519 138.105 20.9022 138.451 19.9534C138.806 18.9961 138.983 17.9076 138.983 16.6877C138.983 15.4763 138.81 14.4005 138.464 13.4601C138.118 12.5198 137.603 11.7828 136.919 11.2491C136.235 10.7154 135.382 10.4486 134.361 10.4486C133.381 10.4486 132.55 10.707 131.866 11.2237C131.182 11.7405 130.663 12.4648 130.308 13.3966C129.962 14.3284 129.789 15.4255 129.789 16.6877Z" fill="#1A44ED"/>
<path d="M151.724 26.8405C150.491 26.8405 149.381 26.6203 148.394 26.1798C147.414 25.7308 146.637 25.07 146.063 24.1975C145.498 23.3249 145.215 22.2491 145.215 20.9699C145.215 19.8687 145.418 18.958 145.823 18.2379C146.228 17.5179 146.781 16.9418 147.482 16.5098C148.182 16.0778 148.972 15.7516 149.85 15.5314C150.736 15.3026 151.652 15.1375 152.598 15.0358C153.738 14.9172 154.662 14.8113 155.371 14.7181C156.08 14.6165 156.595 14.464 156.916 14.2607C157.245 14.0489 157.41 13.7228 157.41 13.2822V13.206C157.41 12.2488 157.127 11.5075 156.562 10.9823C155.996 10.4571 155.181 10.1945 154.118 10.1945C152.995 10.1945 152.104 10.4401 151.445 10.9315C150.795 11.4228 150.356 12.0031 150.128 12.6723L145.848 12.0624C146.186 10.8764 146.743 9.88527 147.52 9.08897C148.296 8.28419 149.246 7.68273 150.369 7.28458C151.492 6.87796 152.733 6.67465 154.092 6.67465C155.029 6.67465 155.962 6.78478 156.891 7.00503C157.82 7.22528 158.668 7.58955 159.436 8.09783C160.205 8.59763 160.821 9.27957 161.285 10.1436C161.758 11.0077 161.994 12.0878 161.994 13.3839V26.4466H157.587V23.7654H157.435C157.157 24.3076 156.764 24.8159 156.258 25.2903C155.76 25.7562 155.131 26.1332 154.371 26.4212C153.619 26.7007 152.737 26.8405 151.724 26.8405ZM152.914 23.4605C153.835 23.4605 154.633 23.2784 155.308 22.9141C155.983 22.5414 156.503 22.05 156.866 21.4401C157.237 20.8302 157.423 20.1652 157.423 19.4451V17.1451C157.279 17.2637 157.034 17.3739 156.688 17.4755C156.351 17.5772 155.971 17.6661 155.549 17.7424C155.126 17.8186 154.709 17.8864 154.295 17.9457C153.881 18.005 153.522 18.0558 153.218 18.0982C152.535 18.1913 151.922 18.3438 151.382 18.5556C150.842 18.7674 150.415 19.0639 150.103 19.4451C149.791 19.8178 149.635 20.3007 149.635 20.8937C149.635 21.7408 149.943 22.3804 150.559 22.8124C151.175 23.2445 151.96 23.4605 152.914 23.4605Z" fill="#1A44ED"/>
<path d="M180.551 12.0878L176.372 12.5452C176.254 12.1217 176.047 11.7235 175.752 11.3508C175.465 10.9781 175.076 10.6773 174.587 10.4486C174.097 10.2199 173.498 10.1055 172.789 10.1055C171.835 10.1055 171.032 10.3131 170.382 10.7282C169.741 11.1432 169.424 11.6812 169.433 12.3419C169.424 12.9095 169.631 13.3712 170.053 13.727C170.484 14.0828 171.193 14.375 172.181 14.6038L175.499 15.3154C177.339 15.7135 178.707 16.3446 179.602 17.2087C180.505 18.0728 180.961 19.2037 180.969 20.6014C180.961 21.8298 180.602 22.9141 179.893 23.8544C179.192 24.7862 178.217 25.5148 176.968 26.04C175.718 26.5652 174.283 26.8278 172.662 26.8278C170.281 26.8278 168.365 26.328 166.913 25.3284C165.46 24.3203 164.595 22.9183 164.316 21.1224L168.787 20.6904C168.989 21.5714 169.42 22.2364 170.078 22.6854C170.737 23.1343 171.594 23.3588 172.649 23.3588C173.738 23.3588 174.612 23.1343 175.271 22.6854C175.938 22.2364 176.271 21.6815 176.271 21.0208C176.271 20.4617 176.056 20 175.625 19.6357C175.203 19.2714 174.545 18.9919 173.65 18.797L170.332 18.0982C168.466 17.7085 167.086 17.052 166.191 16.1286C165.296 15.1968 164.853 14.0192 164.861 12.5961C164.853 11.3932 165.178 10.3512 165.836 9.47017C166.503 8.58069 167.428 7.89452 168.609 7.41165C169.8 6.92032 171.172 6.67465 172.725 6.67465C175.005 6.67465 176.799 7.16175 178.107 8.13595C179.424 9.11014 180.239 10.4274 180.551 12.0878Z" fill="#1A44ED"/>
<path d="M191.934 26.8278C189.984 26.8278 188.3 26.4212 186.882 25.608C185.472 24.7862 184.387 23.6257 183.627 22.1263C182.867 20.6184 182.487 18.8436 182.487 16.8021C182.487 14.7944 182.867 13.0323 183.627 11.516C184.395 9.99116 185.467 8.80518 186.844 7.95805C188.22 7.10245 189.836 6.67465 191.694 6.67465C192.893 6.67465 194.024 6.86949 195.088 7.25917C196.16 7.64038 197.105 8.23337 197.924 9.03814C198.752 9.84291 199.402 10.8679 199.875 12.1132C200.347 13.35 200.584 14.824 200.584 16.5352V17.9457H184.64V14.8452H196.189C196.181 13.9642 195.991 13.1806 195.62 12.4944C195.248 11.7998 194.729 11.2534 194.062 10.8552C193.403 10.4571 192.635 10.258 191.757 10.258C190.82 10.258 189.997 10.4867 189.288 10.9442C188.578 11.3932 188.025 11.9861 187.629 12.7231C187.24 13.4517 187.042 14.2522 187.033 15.1247V17.8313C187.033 18.9665 187.24 19.9407 187.654 20.7539C188.068 21.5587 188.646 22.1771 189.389 22.6091C190.132 23.0327 191.001 23.2445 191.998 23.2445C192.665 23.2445 193.268 23.1513 193.809 22.9649C194.349 22.7701 194.817 22.4863 195.214 22.1135C195.611 21.7408 195.911 21.2791 196.113 20.7285L200.394 21.2114C200.124 22.3465 199.609 23.3376 198.849 24.1848C198.097 25.0234 197.135 25.6757 195.961 26.1416C194.788 26.5991 193.446 26.8278 191.934 26.8278Z" fill="#1A44ED"/>
</svg>
