<svg width="211" height="36" viewBox="0 0 211 36" fill="none" xmlns="http://www.w3.org/2000/svg">
<path d="M70.9223 28.2102C69.3576 28.2359 67.8131 27.8528 66.4398 27.0986C65.1309 26.3708 64.0502 25.2901 63.3193 23.9781C62.573 22.5212 62.1836 20.9061 62.1836 19.2673C62.1836 17.6285 62.573 16.0134 63.3193 14.5565C64.046 13.2371 65.1274 12.1499 66.4398 11.4193C67.8134 10.6662 69.3579 10.2843 70.9223 10.3111C72.3092 10.2802 73.6803 10.6113 74.902 11.272C76.0736 11.9532 77.0093 12.9792 77.5828 14.2116C78.2311 15.5308 78.5553 17.2127 78.5553 19.2573C78.5553 21.3018 78.2222 22.9759 77.5562 24.2794C76.9684 25.5165 76.0223 26.5459 74.842 27.2325C73.6428 27.8969 72.2914 28.234 70.9223 28.2102ZM71.4085 24.7549C72.3311 24.7693 73.2403 24.5321 74.0394 24.0685C74.8215 23.6109 75.4624 22.9446 75.8911 22.1433C76.3398 21.2494 76.5736 20.262 76.5736 19.2606C76.5736 18.2592 76.3398 17.2718 75.8911 16.3779C75.4604 15.5859 74.8193 14.9299 74.0394 14.4828C73.2364 14.0307 72.3288 13.7997 71.4085 13.8132C70.4991 13.8026 69.603 14.0336 68.8109 14.4828C68.031 14.9299 67.39 15.5859 66.9593 16.3779C66.5105 17.2718 66.2767 18.2592 66.2767 19.2606C66.2767 20.262 66.5105 21.2494 66.9593 22.1433C67.3879 22.9446 68.0288 23.6109 68.8109 24.0685C69.5992 24.5291 70.4969 24.7663 71.4085 24.7549ZM76.5005 35.2513V23.9312L76.8335 19.2941L76.7036 14.6569V10.5421H80.5701V31.9031L76.5005 35.2513Z" fill="#1A1D1F"/>
<path d="M15.4088 23.1076C14.4662 24.0036 13.2814 24.5998 12.003 24.8211C10.7246 25.0425 9.40963 24.8793 8.22318 24.3519C7.03674 23.8246 6.03168 22.9566 5.33419 21.857C4.63669 20.7574 4.27783 19.4752 4.30267 18.1712C4.3275 16.8673 4.73492 15.5998 5.47378 14.5278C6.21264 13.4558 7.25001 12.6272 8.45567 12.1459C9.66132 11.6646 10.9815 11.5521 12.2506 11.8225C13.5196 12.093 14.6809 12.7342 15.5887 13.6659L18.496 10.4684C16.9607 8.95989 15.0161 7.94136 12.9067 7.5409C10.7972 7.14043 8.61705 7.37592 6.64035 8.21774C4.66364 9.05955 2.97861 10.4701 1.79712 12.2721C0.615633 14.0741 -0.0095736 16.187 0.000110827 18.3452C0.00979526 20.5035 0.653939 22.6107 1.85155 24.4018C3.04916 26.193 4.74679 27.5882 6.73096 28.4121C8.71514 29.236 10.8973 29.4517 13.0031 29.0321C15.1089 28.6125 17.0443 27.5764 18.5659 26.054L15.4088 23.1076Z" fill="#0076FF"/>
<path opacity="0.8" d="M19.2187 25.3475L16.0216 22.448C16.0996 22.3639 16.173 22.2756 16.2414 22.1835C16.3529 22.0353 16.451 21.8773 16.5345 21.7114L20.3043 23.804C20.1545 24.0618 19.9713 24.333 19.7815 24.6176C19.5917 24.9022 19.3985 25.1299 19.2187 25.3475Z" fill="#0076FF"/>
<path opacity="0.6" d="M20.7739 22.8867L16.9275 20.938C16.9708 20.8342 17.0141 20.7238 17.054 20.6032C17.114 20.4425 17.1639 20.2918 17.2106 20.1445L21.4167 21.0887C21.268 21.7065 21.0525 22.306 20.7739 22.8766V22.8867Z" fill="#0076FF"/>
<path opacity="0.4" d="M21.7763 18.2126L17.4736 18.4169C17.4736 18.5475 17.4736 18.6847 17.4503 18.8287C17.427 18.9727 17.4236 19.1066 17.407 19.2338L21.6264 20.111C21.6797 19.7762 21.723 19.4414 21.7496 19.0497C21.7696 18.755 21.7763 18.4738 21.7763 18.2126Z" fill="#0076FF"/>
<path opacity="0.2" d="M21.3867 15.3801C21.4633 15.6614 21.5365 15.9727 21.5998 16.3109C21.6631 16.6491 21.7064 17.014 21.733 17.3153L17.427 17.4761C17.4103 17.3555 17.3937 17.2316 17.3704 17.1011C17.3471 16.9705 17.3104 16.793 17.2738 16.6558L21.3867 15.3801Z" fill="#0076FF"/>
<path d="M34.0824 10.3145C35.3688 10.2873 36.6434 10.5661 37.8024 11.128C38.8905 11.6875 39.7846 12.5654 40.3667 13.6458C41.0061 14.7775 41.3258 16.2284 41.3258 17.9984V27.9926H37.2662V18.5107C37.2662 16.9638 36.9087 15.8098 36.1938 15.0487C35.4789 14.2876 34.461 13.907 33.14 13.907C32.26 13.8889 31.3893 14.0902 30.6056 14.4929C29.8703 14.883 29.2742 15.4939 28.9006 16.2406C28.4698 17.1524 28.2631 18.1548 28.2978 19.1636V27.9825H24.2715V3.74878H28.2978V15.2764L27.4552 13.8065C28.0403 12.696 28.9537 11.7952 30.0695 11.2285C31.313 10.5995 32.6907 10.2857 34.0824 10.3145Z" fill="#1A1D1F"/>
<path d="M53.1188 28.2103C51.3653 28.2516 49.6291 27.8534 48.0668 27.0519C46.6856 26.3276 45.5325 25.2308 44.7365 23.8845C43.9212 22.4833 43.5042 20.8839 43.531 19.2608C43.4999 17.6446 43.8989 16.0495 44.6866 14.6404C45.4426 13.3139 46.5431 12.2191 47.8703 11.473C49.285 10.684 50.8818 10.2844 52.4994 10.3146C54.0766 10.2865 55.6335 10.6744 57.0152 11.4396C58.3246 12.179 59.4038 13.2698 60.1324 14.5901C60.9235 16.0653 61.3173 17.7227 61.2746 19.398C61.2746 19.5521 61.2746 19.7329 61.2746 19.9706C61.2746 20.2083 61.248 20.4025 61.2247 20.5766H46.7513V17.8646H59.0733L57.4515 18.715C57.4872 17.7995 57.2791 16.891 56.8487 16.0834C56.4475 15.3336 55.8453 14.7118 55.1103 14.2888C54.3157 13.8493 53.4193 13.6298 52.5127 13.6527C51.6015 13.6365 50.7014 13.8555 49.8984 14.2888C49.1407 14.7005 48.5235 15.3316 48.1267 16.1001C47.7014 16.939 47.4897 17.8708 47.5106 18.8121V19.465C47.4911 20.4362 47.7315 21.3948 48.2067 22.2406C48.6754 23.0499 49.3702 23.7031 50.2048 24.1189C51.1441 24.5812 52.1798 24.8108 53.2254 24.7885C54.1269 24.8018 55.0222 24.6357 55.8596 24.2997C56.6436 23.9689 57.3511 23.4788 57.9377 22.86L60.1457 25.4079C59.3337 26.3314 58.3157 27.0485 57.1751 27.5005C55.881 27.9974 54.5037 28.2384 53.1188 28.2103Z" fill="#1A1D1F"/>
<path d="M91.6789 28.2103C90.3335 28.238 89 27.9526 87.7825 27.3766C86.6575 26.8269 85.7317 25.9372 85.1349 24.8321C84.4955 23.687 84.1758 22.2439 84.1758 20.5029V10.5422H88.2687V19.9806C88.2687 21.5274 88.6261 22.687 89.341 23.4593C90.0537 24.2327 91.0528 24.6178 92.3383 24.6178C93.2078 24.6384 94.0684 24.4368 94.8393 24.0318C95.5645 23.6336 96.147 23.0164 96.5044 22.2674C96.9211 21.3574 97.1218 20.3625 97.0905 19.3612V10.5422H101.143V27.9826H97.2671V23.245L97.9498 24.7149C97.3733 25.8166 96.478 26.7167 95.3821 27.2963C94.2436 27.9087 92.97 28.2231 91.6789 28.2103Z" fill="#1A1D1F"/>
<path d="M113.056 28.2103C111.302 28.2516 109.566 27.8534 108.004 27.0519C106.617 26.3297 105.458 25.2328 104.657 23.8845C103.851 22.4804 103.442 20.8815 103.474 19.2608C103.443 17.6446 103.842 16.0495 104.63 14.6404C105.385 13.3132 106.486 12.2181 107.814 11.473C109.228 10.684 110.825 10.2844 112.443 10.3146C114.02 10.2865 115.577 10.6744 116.959 11.4396C118.267 12.1799 119.346 13.2704 120.076 14.5901C120.864 16.0662 121.254 17.7236 121.208 19.398C121.208 19.5521 121.208 19.7329 121.208 19.9706C121.208 20.2083 121.178 20.4025 121.158 20.5766H106.688V17.8646H119.01L117.385 18.715C117.423 17.7996 117.216 16.8907 116.786 16.0834C116.384 15.3336 115.782 14.7118 115.047 14.2888C114.253 13.8493 113.356 13.6298 112.45 13.6527C111.537 13.6359 110.636 13.8549 109.832 14.2888C109.075 14.7006 108.459 15.3317 108.064 16.1001C107.637 16.9387 107.424 17.8705 107.444 18.8121V19.465C107.426 20.4365 107.667 21.3951 108.143 22.2406C108.612 23.0499 109.307 23.7031 110.142 24.1189C111.081 24.5816 112.117 24.8112 113.162 24.7885C114.063 24.8021 114.957 24.6359 115.793 24.2997C116.579 23.9699 117.287 23.4796 117.874 22.86L120.082 25.4079C119.269 26.3315 118.25 27.0485 117.109 27.5005C115.816 27.9977 114.439 28.2387 113.056 28.2103Z" fill="#1A1D1F"/>
<path d="M128.212 3.74878H193.585C196.812 3.74878 199.907 5.03769 202.189 7.33196C204.471 9.62624 205.753 12.7379 205.753 15.9825V34.2575H140.716C139.075 34.2611 137.451 33.9396 135.934 33.3113C134.418 32.6829 133.039 31.7602 131.878 30.5958C130.717 29.4314 129.795 28.0482 129.166 26.5254C128.537 25.0025 128.213 23.3699 128.212 21.721V3.74878Z" fill="#0076FF"/>
<mask id="mask0_1029_1023" style="mask-type:alpha" maskUnits="userSpaceOnUse" x="128" y="3" width="78" height="32">
<path d="M128.212 3.74878H193.585C196.812 3.74878 199.907 5.03769 202.189 7.33196C204.471 9.62624 205.753 12.7379 205.753 15.9825V34.2575H140.716C139.075 34.2611 137.451 33.9396 135.934 33.3113C134.418 32.6829 133.039 31.7602 131.878 30.5958C130.717 29.4314 129.795 28.0482 129.166 26.5254C128.537 25.0025 128.213 23.3699 128.212 21.721V3.74878Z" fill="#0076FF"/>
</mask>
<g mask="url(#mask0_1029_1023)">
<path d="M138.954 24.5353V13.4713H144.128C145.187 13.4019 146.239 13.6743 147.133 14.2488C147.464 14.4863 147.732 14.8018 147.913 15.1678C148.095 15.5337 148.184 15.9387 148.173 16.3474C148.19 16.8797 148.047 17.4047 147.763 17.8543C147.492 18.2713 147.113 18.6066 146.668 18.8244C146.205 19.0491 145.697 19.1644 145.182 19.1616L145.47 18.5905C146.042 18.5826 146.61 18.7 147.133 18.9345C147.607 19.1425 148.011 19.4843 148.296 19.9184C148.596 20.4026 148.743 20.9659 148.721 21.5354C148.74 21.9645 148.651 22.3916 148.464 22.7775C148.276 23.1634 147.995 23.4957 147.646 23.7441C146.687 24.3376 145.567 24.6143 144.443 24.5353H138.954ZM141.008 22.9253H144.327C144.932 22.9607 145.535 22.8299 146.072 22.5469C146.263 22.4078 146.418 22.2252 146.525 22.0141C146.633 21.803 146.688 21.5694 146.688 21.3324C146.688 21.0954 146.633 20.8618 146.525 20.6507C146.418 20.4396 146.263 20.2571 146.072 20.118C145.537 19.8292 144.933 19.6958 144.327 19.7327H140.871V18.1364H143.923C144.494 18.1685 145.062 18.0347 145.559 17.7511C145.749 17.6322 145.903 17.464 146.005 17.2641C146.108 17.0642 146.155 16.8401 146.141 16.6157C146.155 16.3884 146.108 16.1615 146.006 15.9583C145.904 15.7551 145.749 15.583 145.559 15.4598C145.061 15.1789 144.493 15.0476 143.923 15.0814H141.008V22.9253Z" fill="white"/>
<path d="M154.117 24.5353L159.072 13.4713H161.085L166.053 24.5353H163.897L159.654 14.5584H160.469L156.212 24.5353H154.117ZM156.396 21.9757L156.965 20.3656H162.912L163.466 21.9757H156.396Z" fill="white"/>
<path d="M175.585 24.6933C174.75 24.6975 173.919 24.5722 173.121 24.3218C172.439 24.1264 171.8 23.8017 171.239 23.3654L171.924 21.7691C172.417 22.1485 172.97 22.4437 173.559 22.6429C174.201 22.8699 174.877 22.9862 175.558 22.9869C176.021 22.9985 176.483 22.9358 176.926 22.8012C177.231 22.7044 177.503 22.526 177.713 22.2851C177.88 22.0766 177.97 21.8164 177.967 21.5489C177.972 21.3946 177.943 21.2411 177.88 21.1003C177.817 20.9595 177.722 20.8352 177.604 20.737C177.327 20.5112 177.008 20.3428 176.666 20.2416C176.283 20.1223 175.859 20.0122 175.393 19.9113C174.931 19.8123 174.474 19.6883 174.025 19.5397C173.577 19.4015 173.145 19.2146 172.738 18.9824C172.326 18.7474 171.987 18.4014 171.759 17.9832C171.532 17.565 171.425 17.0913 171.451 16.6155C171.446 16.0297 171.613 15.4554 171.93 14.9641C172.292 14.4284 172.801 14.01 173.395 13.76C174.185 13.4368 175.034 13.2845 175.886 13.3128C176.549 13.3133 177.208 13.3965 177.85 13.5605C178.452 13.7096 179.025 13.956 179.548 14.2898L178.904 15.8861C178.428 15.599 177.914 15.379 177.378 15.2325C176.888 15.0936 176.382 15.0219 175.872 15.0192C175.408 15.0042 174.944 15.0741 174.504 15.2256C174.197 15.3271 173.926 15.5159 173.723 15.7692C173.562 15.9854 173.476 16.2488 173.477 16.5192C173.473 16.6736 173.502 16.8271 173.564 16.9687C173.625 17.1103 173.717 17.2364 173.833 17.338C174.107 17.5606 174.424 17.7245 174.764 17.8196C175.14 17.9297 175.571 18.0467 176.044 18.1499C176.516 18.2531 176.981 18.3769 177.412 18.5214C177.858 18.6557 178.288 18.8404 178.692 19.0719C179.07 19.2933 179.389 19.6024 179.623 19.9732C179.889 20.3997 180.027 20.8942 180.02 21.3975C180.024 21.9788 179.857 22.5484 179.541 23.0351C179.178 23.5724 178.666 23.991 178.069 24.2392C177.281 24.5615 176.435 24.7161 175.585 24.6933Z" fill="white"/>
<path d="M188.823 22.7739H195.038V24.5078H186.784V13.4713H194.819V15.2052H188.823V22.7739ZM188.666 18.04H194.141V19.7326H188.666V18.04Z" fill="white"/>
</g>
<path d="M205.838 1.07104V0.748779H207.794V1.07104H206.974V3.74878H206.658V1.07104H205.838Z" fill="#1A1D1F"/>
<path d="M208.281 0.748779H208.658L209.544 3.23901H209.575L210.461 0.748779H210.838V3.74878H210.542V1.46948H210.517L209.702 3.74878H209.417L208.602 1.46948H208.576V3.74878H208.281V0.748779Z" fill="#1A1D1F"/>
</svg>
