<svg width="48" height="49" viewBox="0 0 48 49" fill="none" xmlns="http://www.w3.org/2000/svg">
<rect y="0.250977" width="48" height="48" rx="16" fill="#F6F7F9"/>
<path d="M29 10.251C27.5946 10.2506 26.2087 10.5795 24.9533 11.2112C23.6978 11.8429 22.6079 12.7599 21.7707 13.8888C20.9335 15.0176 20.3724 16.3268 20.1323 17.7115C19.8922 19.0963 19.9798 20.518 20.3881 21.8628L10 32.251V38.251H16L26.3881 27.8628C27.626 28.2386 28.9304 28.3432 30.2124 28.1693C31.4944 27.9954 32.7239 27.5472 33.817 26.8552C34.9101 26.1632 35.8411 25.2436 36.5467 24.1592C37.2522 23.0748 37.7157 21.851 37.9055 20.5713C38.0953 19.2915 38.0069 17.9859 37.6465 16.7434C37.286 15.5009 36.6619 14.3507 35.8167 13.3712C34.9715 12.3918 33.9251 11.606 32.7487 11.0675C31.5724 10.5291 30.2937 10.2506 29 10.251ZM29 26.251C28.3114 26.2506 27.6267 26.1487 26.9678 25.9488L25.821 25.601L24.9738 26.4482L21.7927 29.6294L20.4141 28.251L19 29.6651L20.3787 31.0437L18.7928 32.6297L17.4141 31.251L16 32.6651L17.3787 34.0437L15.1716 36.251H12V33.0794L21.8023 23.2771L22.6495 22.4297L22.3022 21.283C21.8748 19.874 21.9025 18.366 22.3816 16.9737C22.8606 15.5814 23.7664 14.3756 24.9703 13.5278C26.1741 12.68 27.6147 12.2334 29.087 12.2515C30.5593 12.2696 31.9884 12.7516 33.171 13.6288C34.3536 14.5059 35.2295 15.7337 35.6741 17.1374C36.1187 18.5411 36.1093 20.0492 35.6473 21.4473C35.1853 22.8454 34.2942 24.0622 33.1008 24.9246C31.9074 25.787 30.4724 26.2511 29 26.251Z" fill="#1A44ED"/>
<path d="M30 20.251C31.1046 20.251 32 19.3555 32 18.251C32 17.1464 31.1046 16.251 30 16.251C28.8954 16.251 28 17.1464 28 18.251C28 19.3555 28.8954 20.251 30 20.251Z" fill="#1A44ED"/>
</svg>
