<svg width="568" height="113" viewBox="0 0 568 113" fill="none" xmlns="http://www.w3.org/2000/svg">
<rect width="568" height="113" fill="white"/>
<path d="M58.9393 61.4329C59.2091 61.6218 59.276 61.9948 59.0723 62.2537C57.806 63.8629 56.1006 65.0777 54.1566 65.7471C52.0241 66.4814 49.714 66.5217 47.5572 65.8623C45.4004 65.2029 43.5078 63.8777 42.1505 62.0765C40.7932 60.2753 40.041 58.0907 40.0016 55.8357C39.9623 53.5808 40.6378 51.3712 41.9314 49.5238C43.225 47.6763 45.0702 46.2858 47.2027 45.5516C49.3351 44.8173 51.6453 44.777 53.802 45.4364C55.7683 46.0375 57.515 47.1921 58.8367 48.7561C59.0493 49.0077 58.9955 49.3829 58.7325 49.5811L56.3047 51.4105C56.0417 51.6088 55.6697 51.554 55.448 51.3104C54.6709 50.4563 53.6758 49.8238 52.5645 49.4841C51.2626 49.086 49.868 49.1104 48.5807 49.5536C47.2934 49.9969 46.1795 50.8363 45.3986 51.9515C44.6177 53.0668 44.2099 54.4006 44.2336 55.7619C44.2574 57.1231 44.7115 58.4419 45.5308 59.5293C46.3502 60.6166 47.4927 61.4166 48.7947 61.8146C50.0967 62.2127 51.4913 62.1884 52.7786 61.7451C53.8773 61.3668 54.8497 60.6999 55.5965 59.8192C55.8096 59.568 56.1794 59.5003 56.4492 59.6893L58.9393 61.4329Z" fill="#1A44ED"/>
<path d="M60.0326 58.9466C60.3024 59.1356 60.677 59.0712 60.8398 58.7848C61.3999 57.7995 61.6877 56.6786 61.6678 55.5381C61.6479 54.3977 61.3211 53.2875 60.7269 52.3223C60.5543 52.0418 60.1777 51.9905 59.9146 52.1888L55.9784 55.1549C55.6549 55.3987 55.6634 55.8873 55.9953 56.1197L60.0326 58.9466Z" fill="#1A44ED"/>
<path d="M68.7718 54.4375V65.7561H64.2155V40H68.6711V49.7214H68.8977C69.3508 48.6315 70.0514 47.7721 70.9996 47.1433C71.9562 46.5061 73.1729 46.1875 74.6497 46.1875C75.9923 46.1875 77.1629 46.4684 78.1614 47.0301C79.16 47.5918 79.9319 48.4135 80.4774 49.495C81.0312 50.5766 81.3081 51.8971 81.3081 53.4566V65.7561H76.7517V54.1608C76.7517 52.8613 76.4161 51.851 75.7448 51.13C75.0819 50.4005 74.1505 50.0358 72.9506 50.0358C72.145 50.0358 71.4234 50.2119 70.7857 50.564C70.1563 50.9078 69.6613 51.4066 69.3004 52.0606C68.948 52.7146 68.7718 53.5069 68.7718 54.4375Z" fill="black"/>
<path d="M93.0937 66.1334C91.1553 66.1334 89.4813 65.7309 88.0716 64.9261C86.6703 64.1128 85.592 62.9642 84.8368 61.4802C84.0816 59.9878 83.7041 58.2313 83.7041 56.2107C83.7041 54.2237 84.0816 52.4798 84.8368 50.979C85.6004 49.4699 86.6661 48.2961 88.0338 47.4577C89.4016 46.6109 91.0085 46.1875 92.8545 46.1875C94.046 46.1875 95.1704 46.3803 96.2277 46.766C97.2934 47.1433 98.2332 47.7302 99.0471 48.5267C99.8694 49.3232 100.516 50.3377 100.985 51.5701C101.455 52.7942 101.69 54.253 101.69 55.9466V57.3426H85.8438V54.274H97.3228C97.3144 53.4021 97.1256 52.6265 96.7564 51.9474C96.3872 51.2599 95.8711 50.7191 95.2082 50.3251C94.5537 49.931 93.7901 49.734 92.9174 49.734C91.986 49.734 91.1679 49.9604 90.4631 50.4131C89.7582 50.8575 89.2086 51.4444 88.8142 52.1738C88.4282 52.8948 88.231 53.6871 88.2226 54.5507V57.2294C88.2226 58.3529 88.4282 59.3171 88.8394 60.122C89.2505 60.9184 89.8253 61.5305 90.5638 61.9581C91.3022 62.3773 92.1664 62.5869 93.1566 62.5869C93.8195 62.5869 94.4194 62.4947 94.9565 62.3102C95.4935 62.1174 95.9592 61.8365 96.3536 61.4676C96.748 61.0987 97.0459 60.6418 97.2472 60.0968L101.502 60.5747C101.233 61.6982 100.721 62.6791 99.9659 63.5175C99.2191 64.3476 98.2626 64.9931 97.0962 65.4543C95.9298 65.907 94.5957 66.1334 93.0937 66.1334Z" fill="black"/>
<path d="M117.028 73V62.7127H116.84C116.605 63.1822 116.265 63.681 115.82 64.2092C115.375 64.729 114.788 65.1734 114.058 65.5423C113.328 65.9112 112.409 66.0957 111.302 66.0957C109.783 66.0957 108.423 65.7058 107.224 64.9261C106.024 64.1463 105.075 63.0145 104.379 61.5305C103.682 60.0465 103.334 58.2439 103.334 56.1227C103.334 53.9764 103.687 52.1654 104.392 50.6898C105.105 49.2058 106.066 48.0865 107.274 47.3319C108.482 46.569 109.829 46.1875 111.314 46.1875C112.447 46.1875 113.378 46.3803 114.108 46.766C114.838 47.1433 115.417 47.6002 115.845 48.1368C116.273 48.665 116.605 49.1639 116.84 49.6334H117.117V46.439H121.597V73H117.028ZM112.573 62.3605C113.538 62.3605 114.36 62.1006 115.04 61.5808C115.719 61.0526 116.236 60.319 116.588 59.38C116.94 58.4409 117.117 57.3468 117.117 56.0976C117.117 54.8483 116.94 53.7626 116.588 52.8403C116.244 51.9181 115.732 51.2012 115.052 50.6898C114.381 50.1784 113.555 49.9226 112.573 49.9226C111.557 49.9226 110.71 50.1867 110.03 50.7149C109.351 51.2431 108.839 51.9726 108.495 52.9032C108.151 53.8338 107.979 54.8986 107.979 56.0976C107.979 57.3049 108.151 58.3822 108.495 59.3297C108.847 60.2687 109.363 61.0107 110.043 61.5556C110.731 62.0922 111.574 62.3605 112.573 62.3605Z" fill="black"/>
<path d="M137.184 57.6319V46.439H141.741V65.7561H137.323V62.3228H137.121C136.685 63.4043 135.967 64.2889 134.969 64.9764C133.979 65.6639 132.758 66.0076 131.306 66.0076C130.039 66.0076 128.919 65.7268 127.946 65.165C126.981 64.5949 126.225 63.7691 125.68 62.6875C125.135 61.5976 124.862 60.2813 124.862 58.7386V46.439H129.418V58.0343C129.418 59.2584 129.754 60.2309 130.425 60.952C131.096 61.673 131.978 62.0335 133.068 62.0335C133.74 62.0335 134.39 61.87 135.019 61.5431C135.649 61.2161 136.165 60.7298 136.567 60.0842C136.979 59.4303 137.184 58.6128 137.184 57.6319Z" fill="black"/>
<path d="M153.567 66.1334C151.629 66.1334 149.955 65.7309 148.545 64.9261C147.144 64.1128 146.065 62.9642 145.31 61.4802C144.555 59.9878 144.177 58.2313 144.177 56.2107C144.177 54.2237 144.555 52.4798 145.31 50.979C146.074 49.4699 147.139 48.2961 148.507 47.4577C149.875 46.6109 151.482 46.1875 153.328 46.1875C154.519 46.1875 155.644 46.3803 156.701 46.766C157.767 47.1433 158.707 47.7302 159.52 48.5267C160.343 49.3232 160.989 50.3377 161.459 51.5701C161.929 52.7942 162.164 54.253 162.164 55.9466V57.3426H146.317V54.274H157.796C157.788 53.4021 157.599 52.6265 157.23 51.9474C156.861 51.2599 156.344 50.7191 155.682 50.3251C155.027 49.931 154.263 49.734 153.391 49.734C152.459 49.734 151.641 49.9604 150.936 50.4131C150.232 50.8575 149.682 51.4444 149.288 52.1738C148.902 52.8948 148.704 53.6871 148.696 54.5507V57.2294C148.696 58.3529 148.902 59.3171 149.313 60.122C149.724 60.9184 150.299 61.5305 151.037 61.9581C151.776 62.3773 152.64 62.5869 153.63 62.5869C154.293 62.5869 154.893 62.4947 155.43 62.3102C155.967 62.1174 156.433 61.8365 156.827 61.4676C157.221 61.0987 157.519 60.6418 157.721 60.0968L161.975 60.5747C161.706 61.6982 161.194 62.6791 160.439 63.5175C159.692 64.3476 158.736 64.9931 157.57 65.4543C156.403 65.907 155.069 66.1334 153.567 66.1334Z" fill="black"/>
<path d="M164.711 65.9027V40H169.274V49.6882H169.463C169.698 49.216 170.03 48.7144 170.459 48.1831C170.887 47.6435 171.467 47.184 172.198 46.8045C172.929 46.4167 173.862 46.2227 174.996 46.2227C176.492 46.2227 177.841 46.6064 179.043 47.3737C180.253 48.1326 181.211 49.2582 181.916 50.7506C182.631 52.2347 182.988 54.0559 182.988 56.2145C182.988 58.3478 182.639 60.1606 181.942 61.6531C181.244 63.1455 180.295 64.2838 179.093 65.068C177.891 65.8522 176.53 66.2442 175.009 66.2442C173.9 66.2442 172.98 66.0587 172.249 65.6877C171.517 65.3167 170.929 64.8698 170.484 64.3471C170.047 63.8158 169.707 63.3142 169.463 62.842H169.198V65.9027H164.711ZM169.186 56.1892C169.186 57.4456 169.362 58.5459 169.715 59.4903C170.076 60.4347 170.593 61.1725 171.265 61.7037C171.946 62.2264 172.77 62.4878 173.736 62.4878C174.744 62.4878 175.589 62.218 176.27 61.6784C176.95 61.1303 177.463 60.3841 177.807 59.4397C178.16 58.4869 178.337 57.4034 178.337 56.1892C178.337 54.9835 178.164 53.9126 177.82 52.9767C177.475 52.0407 176.963 51.3072 176.282 50.7759C175.601 50.2447 174.753 49.9791 173.736 49.9791C172.761 49.9791 171.933 50.2363 171.253 50.7506C170.572 51.265 170.055 51.9859 169.702 52.9134C169.358 53.8409 169.186 54.9329 169.186 56.1892Z" fill="#1A44ED"/>
<path d="M191.019 66.2948C189.792 66.2948 188.687 66.0756 187.704 65.6371C186.729 65.1902 185.956 64.5326 185.384 63.6641C184.821 62.7956 184.54 61.7247 184.54 60.4515C184.54 59.3554 184.741 58.449 185.145 57.7322C185.548 57.0155 186.099 56.4422 186.796 56.0121C187.493 55.5821 188.279 55.2575 189.153 55.0383C190.035 54.8106 190.947 54.6462 191.888 54.545C193.023 54.427 193.943 54.3216 194.649 54.2288C195.355 54.1276 195.867 53.9758 196.187 53.7735C196.514 53.5627 196.678 53.2381 196.678 52.7996V52.7237C196.678 51.7709 196.397 51.0331 195.834 50.5103C195.271 49.9876 194.46 49.7262 193.401 49.7262C192.283 49.7262 191.397 49.9707 190.741 50.4598C190.094 50.9488 189.657 51.5264 189.43 52.1925L185.17 51.5854C185.506 50.4049 186.061 49.4184 186.834 48.6258C187.607 47.8248 188.552 47.2261 189.67 46.8298C190.788 46.4251 192.023 46.2227 193.376 46.2227C194.308 46.2227 195.237 46.3323 196.161 46.5516C197.086 46.7708 197.93 47.1334 198.695 47.6393C199.46 48.1368 200.073 48.8155 200.535 49.6756C201.006 50.5356 201.241 51.6107 201.241 52.9008V65.9027H196.855V63.2341H196.703C196.426 63.7737 196.035 64.2796 195.531 64.7518C195.035 65.2155 194.409 65.5908 193.653 65.8774C192.905 66.1557 192.027 66.2948 191.019 66.2948ZM192.203 62.9305C193.119 62.9305 193.914 62.7492 194.586 62.3866C195.258 62.0156 195.775 61.5266 196.136 60.9195C196.506 60.3124 196.691 59.6505 196.691 58.9338V56.6445C196.548 56.7626 196.304 56.8722 195.96 56.9734C195.624 57.0746 195.245 57.1631 194.825 57.239C194.405 57.3149 193.989 57.3823 193.577 57.4413C193.166 57.5004 192.809 57.551 192.506 57.5931C191.825 57.6859 191.216 57.8376 190.678 58.0484C190.14 58.2592 189.716 58.5544 189.405 58.9338C189.094 59.3048 188.939 59.7854 188.939 60.3756C188.939 61.2188 189.246 61.8554 189.859 62.2855C190.472 62.7155 191.254 62.9305 192.203 62.9305Z" fill="#1A44ED"/>
<path d="M219.712 51.6107L215.552 52.066C215.435 51.6444 215.229 51.2481 214.935 50.8771C214.649 50.5061 214.262 50.2068 213.775 49.9791C213.288 49.7515 212.691 49.6376 211.985 49.6376C211.036 49.6376 210.237 49.8442 209.59 50.2574C208.952 50.6705 208.636 51.206 208.645 51.8637C208.636 52.4286 208.842 52.8881 209.262 53.2423C209.691 53.5964 210.397 53.8873 211.38 54.115L214.683 54.8232C216.514 55.2195 217.876 55.8477 218.767 56.7078C219.666 57.5678 220.119 58.6935 220.128 60.0847C220.119 61.3074 219.762 62.3866 219.056 63.3226C218.359 64.2501 217.388 64.9752 216.145 65.498C214.901 66.0208 213.472 66.2822 211.859 66.2822C209.489 66.2822 207.582 65.7847 206.136 64.7897C204.691 63.7863 203.83 62.3909 203.552 60.6033L208.002 60.1733C208.204 61.0502 208.632 61.7121 209.288 62.159C209.943 62.6059 210.796 62.8293 211.846 62.8293C212.93 62.8293 213.8 62.6059 214.456 62.159C215.119 61.7121 215.451 61.1598 215.451 60.5021C215.451 59.9456 215.237 59.4861 214.809 59.1235C214.388 58.7609 213.733 58.4827 212.842 58.2888L209.54 57.5931C207.683 57.2053 206.309 56.5518 205.418 55.6327C204.527 54.7052 204.086 53.5332 204.094 52.1166C204.086 50.9193 204.41 49.8822 205.065 49.0052C205.729 48.1199 206.649 47.4369 207.825 46.9563C209.01 46.4673 210.376 46.2227 211.922 46.2227C214.191 46.2227 215.977 46.7076 217.279 47.6772C218.59 48.6469 219.401 49.9581 219.712 51.6107Z" fill="#1A44ED"/>
<path d="M231.042 66.2822C229.101 66.2822 227.424 65.8774 226.013 65.068C224.609 64.2501 223.529 63.0949 222.773 61.6025C222.017 60.1016 221.639 58.3351 221.639 56.303C221.639 54.3047 222.017 52.5509 222.773 51.0416C223.538 49.5238 224.605 48.3433 225.975 47.5002C227.344 46.6485 228.954 46.2227 230.802 46.2227C231.996 46.2227 233.122 46.4167 234.181 46.8045C235.248 47.184 236.189 47.7742 237.004 48.5752C237.828 49.3763 238.475 50.3965 238.945 51.636C239.416 52.8671 239.651 54.3342 239.651 56.0374V57.4413H223.781V54.3553H235.277C235.269 53.4784 235.08 52.6984 234.71 52.0154C234.34 51.324 233.823 50.7802 233.16 50.3839C232.504 49.9876 231.739 49.7894 230.865 49.7894C229.933 49.7894 229.113 50.0171 228.407 50.4724C227.702 50.9193 227.151 51.5095 226.756 52.2431C226.37 52.9682 226.172 53.765 226.164 54.6335V57.3275C226.164 58.4574 226.37 59.4271 226.781 60.2365C227.193 61.0375 227.769 61.6531 228.508 62.0831C229.248 62.5047 230.113 62.7155 231.105 62.7155C231.769 62.7155 232.37 62.6227 232.907 62.4372C233.445 62.2433 233.912 61.9608 234.307 61.5898C234.702 61.2188 235 60.7593 235.202 60.2112L239.462 60.6918C239.193 61.8217 238.68 62.8082 237.924 63.6514C237.176 64.4862 236.218 65.1354 235.05 65.5992C233.882 66.0545 232.546 66.2822 231.042 66.2822Z" fill="#1A44ED"/>
</svg>
