<svg width="48" height="49" viewBox="0 0 48 49" fill="none" xmlns="http://www.w3.org/2000/svg">
<rect y="0.250977" width="48" height="48" rx="16" fill="#F6F7F9"/>
<path d="M18 32.251H20V38.251H18V32.251Z" fill="#1A44ED"/>
<path d="M29 28.251H15C14.2046 28.2501 13.4421 27.9338 12.8796 27.3713C12.3172 26.8089 12.0009 26.0464 12 25.251V14.251H10V25.251C10.0016 26.5766 10.5288 27.8474 11.4662 28.7848C12.4035 29.7221 13.6744 30.2494 15 30.251H29C29.7285 30.2542 30.4474 30.4184 31.105 30.732L25 36.8369L26.4141 38.251L32.7212 31.9439C33.5404 32.851 33.9958 34.0287 34 35.251V38.251H36V35.251C35.9979 33.3951 35.2598 31.6158 33.9475 30.3035C32.6352 28.9912 30.8559 28.253 29 28.251Z" fill="#1A44ED"/>
<path d="M33.2746 12.2895L26.2746 10.2895C26.0948 10.2381 25.9043 10.2381 25.7246 10.2895L18.7246 12.2895C18.4752 12.3608 18.2634 12.5262 18.1338 12.7508C18.0042 12.9754 17.9669 13.2415 18.03 13.4931L19 17.3739V19.2509C19 20.1701 19.181 21.0804 19.5328 21.9297C19.8846 22.7789 20.4002 23.5506 21.0502 24.2006C21.7002 24.8506 22.4719 25.3663 23.3212 25.718C24.1704 26.0698 25.0807 26.2509 26 26.2509C26.9192 26.2509 27.8295 26.0698 28.6787 25.718C29.528 25.3663 30.2997 24.8506 30.9497 24.2006C31.5997 23.5506 32.1153 22.7789 32.4671 21.9297C32.8189 21.0804 33 20.1701 33 19.2509V17.3739L33.97 13.4931C34.0329 13.2414 33.9956 12.9752 33.8658 12.7506C33.736 12.526 33.524 12.3606 33.2746 12.2895ZM26 12.2909L31.7952 13.9467L31.219 16.2509H27V14.2509H25V16.2509H20.781L20.2048 13.9467L26 12.2909ZM26 24.2509C24.6743 24.2493 23.4035 23.7221 22.4661 22.7847C21.5288 21.8474 21.0015 20.5765 21 19.2509V18.2509H31V19.2509C30.9984 20.5765 30.4711 21.8474 29.5338 22.7847C28.5964 23.7221 27.3256 24.2493 26 24.2509Z" fill="#1A44ED"/>
</svg>
