<svg width="48" height="49" viewBox="0 0 48 49" fill="none" xmlns="http://www.w3.org/2000/svg">
<rect y="0.250977" width="48" height="48" rx="16" fill="#F6F7F9"/>
<path d="M24 38.251L17.8242 34.9581C16.0635 34.0214 14.591 32.623 13.5649 30.9128C12.5388 29.2027 11.9978 27.2453 12 25.251V12.251C12.0006 11.7207 12.2115 11.2124 12.5864 10.8374C12.9614 10.4625 13.4698 10.2516 14 10.251H34C34.5303 10.2516 35.0386 10.4625 35.4136 10.8374C35.7885 11.2124 35.9994 11.7207 36 12.251V25.251C36.0021 27.2453 35.4611 29.2026 34.435 30.9127C33.409 32.6228 31.9365 34.0213 30.1758 34.9579L24 38.251ZM14 12.251V25.251C13.9983 26.8828 14.441 28.4843 15.2806 29.8835C16.1201 31.2828 17.3249 32.427 18.7656 33.1933L24 35.9843L29.2344 33.1933C30.6751 32.427 31.8799 31.2828 32.7195 29.8835C33.559 28.4843 34.0017 26.8828 34 25.251V12.251H14Z" fill="#1A44ED"/>
<path d="M24 33.528V14.251H32V25.0558C32 26.3233 31.6557 27.5671 31.0041 28.6543C30.3525 29.7415 29.4178 30.6313 28.3 31.2289L24 33.528Z" fill="#1A44ED"/>
</svg>
