<svg width="41" height="39" viewBox="0 0 41 39" fill="none" xmlns="http://www.w3.org/2000/svg">
<path fill-rule="evenodd" clip-rule="evenodd" d="M11.6675 0.891602H29.4868C30.6181 0.891602 31.6825 1.42795 32.3556 2.33726L40.2946 13.0615C41.288 14.4034 41.2184 16.2547 40.1271 17.5183L23.2785 37.0267C21.8548 38.6752 19.2995 38.6752 17.8758 37.0267L1.02721 17.5183C-0.0641002 16.2547 -0.133666 14.4034 0.859734 13.0615L8.79864 2.33726C9.47177 1.42795 10.5361 0.891602 11.6675 0.891602ZM27.6792 11.6365L25.9313 4.46086L24.1835 11.6365L17.0077 13.3843L24.1835 15.1321L25.9313 22.3077L27.6792 15.1321L34.8549 13.3843L27.6792 11.6365Z" fill="#1A44ED"/>
</svg>
